<svg width="53" height="40" viewBox="0 0 53 40" fill="none" xmlns="http://www.w3.org/2000/svg">
<path d="M30.095 17.0642C27.1721 16.0742 24.2501 15.0799 21.3298 14.0796C20.9209 13.9399 20.524 13.8413 20.1837 14.1945C19.8614 14.5296 19.9729 14.9145 20.104 15.2976C20.6355 16.8499 21.1592 18.4057 21.6889 19.9588C22.1723 21.3766 22.6635 22.7917 23.1444 24.2112C23.2704 24.5832 23.4795 24.8403 23.8969 24.8626C24.3392 24.8858 24.5904 24.6406 24.7378 24.2523C24.8012 24.0852 24.8681 23.9206 24.9341 23.7543C25.2778 22.8843 25.6207 22.0151 26.0055 21.0423C26.555 21.6148 27.0307 22.1231 27.521 22.6177C27.9899 23.0909 28.4073 23.1286 28.7785 22.754C29.1342 22.3957 29.0965 21.9294 28.649 21.4828C28.157 20.9908 27.6479 20.516 27.0873 19.9768C28.1716 19.5448 29.141 19.1377 30.1268 18.7742C30.5725 18.6105 30.9051 18.3945 30.8905 17.8794C30.8768 17.3771 30.5065 17.2039 30.095 17.0642ZM25.6335 18.8068C25.2264 18.95 24.9804 19.1977 24.8338 19.5928C24.587 20.2563 24.3169 20.9111 23.9964 21.7203C23.3269 19.7634 22.7055 17.9462 22.0463 16.0193C23.9844 16.6828 25.8007 17.3051 27.7413 17.9694C26.9596 18.2831 26.3056 18.5702 25.6344 18.806L25.6335 18.8068Z" fill="#16123F"/>
<path d="M23.2027 0.482251L21.5407 5.76748C21.485 5.94405 21.3067 6.05291 21.1241 6.02033L17.9698 5.46661C17.6741 5.41433 17.5609 5.05004 17.7752 4.83918L22.5916 0.107674C22.8659 -0.161473 23.3184 0.115388 23.2027 0.482251Z" fill="#16123F"/>
<path d="M40.9247 6.843C40.9247 6.62785 40.9264 6.4127 40.9067 6.19927C40.869 5.79812 40.6718 5.52983 40.2458 5.47926C39.9792 5.44754 39.7101 5.37812 39.4469 5.39526C37.6443 5.5144 35.828 5.54526 34.0451 5.80669C31.2302 6.21984 28.4805 6.93557 25.8524 8.06873C25.6098 8.1733 25.2567 8.15102 24.9961 8.06445C24.0815 7.76015 23.1987 7.36158 22.2798 7.07271C20.0083 6.3587 17.6889 5.83241 15.3145 5.62069C13.9251 5.4964 12.5279 5.42355 11.1333 5.41926C10.1459 5.41583 9.95215 5.68755 9.95215 6.65957C9.95215 12.8645 9.95215 19.0695 9.95215 25.2744C9.95215 25.4184 10.0284 25.5513 10.1527 25.6241L11.1933 26.2301C11.3493 26.321 11.5456 26.2087 11.5456 26.0279C11.5465 19.9283 11.5499 13.8288 11.5362 7.72929C11.5353 7.22357 11.6476 7.06929 12.1825 7.077C16.5085 7.13786 20.6632 7.99501 24.6404 9.69218C25.1933 9.9279 25.6681 9.92962 26.2244 9.69218C30.2694 7.96673 34.4977 7.10271 38.8966 7.09157C39.0004 7.09157 39.1041 7.10529 39.2446 7.11557V28.7442C37.7849 28.8376 36.3766 28.9173 34.97 29.0211C32.3857 29.2113 29.9128 29.9022 27.4947 30.8168C26.9736 31.0139 26.467 31.2445 25.9527 31.458C25.5696 31.6174 25.2421 31.5822 24.8418 31.4391C23.0281 30.7902 21.2246 30.0805 19.3637 29.6039C18.4037 29.3579 17.4326 29.1693 16.4528 29.039C16.3277 29.0219 16.2694 29.1908 16.3791 29.2542L20.0606 31.3997C21.5238 31.7905 22.9484 32.3254 24.3207 32.9905C25.1076 33.372 25.747 33.3591 26.5296 32.9991C30.6834 31.0919 35.0591 30.2811 39.6235 30.4868C40.6135 30.5314 40.9195 30.2476 40.9204 29.2516C40.923 25.4904 40.9212 21.7284 40.9212 17.9672H40.9238C40.9238 14.2591 40.9238 10.5519 40.9238 6.84386L40.9247 6.843Z" fill="#16123F"/>
<path d="M41.4929 13.2349V18.1062C41.4929 18.215 41.5409 18.3179 41.624 18.3882L46.2261 22.2762C46.3649 22.3937 46.3975 22.5934 46.3041 22.7494L36.2368 39.4356C36.0019 39.8239 36.5393 40.2113 36.8342 39.8659L52.2999 21.7285C52.4345 21.5708 52.413 21.3333 52.2519 21.2022L42.0954 12.9486C41.8537 12.7524 41.4929 12.9246 41.4929 13.2349Z" fill="#16123F"/>
<path d="M9.40375 16.295V22.6808C9.40375 22.794 9.35232 22.9002 9.26404 22.9705L7.57543 24.3077C7.37229 24.4688 7.39372 24.7834 7.61658 24.9154L24.6209 34.9664C24.7923 35.0676 24.8523 35.2879 24.7563 35.4627L23.0437 38.5768C22.9426 38.7611 22.7077 38.8236 22.5277 38.7139L0.177309 25.11C-0.028409 24.9848 -0.0609809 24.6994 0.110451 24.5306L8.77546 16.031C9.00946 15.8021 9.40375 15.9676 9.40375 16.295Z" fill="#16123F"/>
</svg>
