<svg width="118" height="40" viewBox="0 0 118 40" fill="none" xmlns="http://www.w3.org/2000/svg">
<path d="M56.6719 15.5205H58.1359V20.3386L62.2803 15.5205H64.0049L58.1359 22.1712V24.4906H56.6719V15.5205ZM60.4811 19.1471L64.2286 24.4906H62.4663L59.5134 20.3514L60.4811 19.1471Z" fill="#16123F"/>
<path d="M68.2862 15.5205H69.788L73.5852 24.4906H72.0217L68.9942 17.0454L65.9787 24.4906H64.4521L68.2862 15.5205ZM66.3628 21.1332H71.5614V22.4146H66.3628V21.1332Z" fill="#16123F"/>
<path d="M83.374 17.5969C83.0594 17.392 82.7491 17.23 82.4431 17.11C82.1371 16.9909 81.8474 16.9052 81.5748 16.8537C81.3022 16.8023 81.0536 16.7766 80.8299 16.7766C80.3996 16.7766 80.0568 16.8623 79.7996 17.0329C79.5433 17.2035 79.4148 17.4512 79.4148 17.776C79.4148 18.0666 79.4996 18.3041 79.6693 18.4875C79.8391 18.6709 80.0619 18.8209 80.3396 18.9358C80.6165 19.0515 80.9225 19.1604 81.2576 19.2624C81.5928 19.3652 81.9254 19.4784 82.2562 19.6018C82.5871 19.7261 82.8931 19.8855 83.1742 20.0827C83.4554 20.2789 83.6791 20.5292 83.8445 20.8327C84.01 21.1361 84.0923 21.5184 84.0923 21.9795C84.0923 22.5093 83.9517 22.9687 83.6705 23.357C83.3894 23.7461 83.0028 24.047 82.5099 24.2604C82.0179 24.4739 81.4531 24.581 80.8162 24.581C80.3611 24.581 79.9188 24.5193 79.4885 24.395C79.0582 24.2716 78.6553 24.1027 78.279 23.8893C77.9027 23.6759 77.5659 23.4281 77.2676 23.1461L77.9002 21.9033C78.1976 22.1853 78.5147 22.4244 78.849 22.6207C79.1842 22.817 79.5228 22.967 79.8665 23.069C80.2093 23.1718 80.5342 23.2224 80.8402 23.2224C81.3528 23.2224 81.7522 23.1196 82.0377 22.9147C82.3231 22.7098 82.4654 22.4235 82.4654 22.0558C82.4654 21.7567 82.3805 21.5158 82.2108 21.3315C82.0411 21.1481 81.8182 20.9964 81.5405 20.8764C81.2636 20.7572 80.9576 20.6501 80.6225 20.5558C80.2873 20.4615 79.9522 20.3527 79.617 20.2292C79.2819 20.1058 78.9759 19.9498 78.699 19.7612C78.4222 19.5735 78.1985 19.3301 78.0287 19.0309C77.859 18.7318 77.7742 18.3521 77.7742 17.89C77.7742 17.386 77.9062 16.948 78.171 16.5769C78.4359 16.2049 78.8053 15.9169 79.2819 15.712C79.7576 15.5072 80.3096 15.4043 80.9379 15.4043C81.5002 15.4043 82.0462 15.49 82.5759 15.6606C83.1057 15.832 83.5728 16.054 83.9783 16.3266L83.3705 17.5952L83.374 17.5969Z" fill="#16123F"/>
<path d="M84.7764 15.5205H91.7373V16.8148H88.9824V24.4906H87.5184V16.8148H84.7764V15.5205Z" fill="#16123F"/>
<path d="M96.3528 15.4307C96.9983 15.4307 97.6 15.5464 98.158 15.777C98.716 16.0075 99.2046 16.3324 99.622 16.7507C100.039 17.169 100.367 17.6541 100.603 18.2053C100.838 18.7564 100.957 19.3522 100.957 19.9933C100.957 20.6345 100.839 21.2345 100.603 21.7933C100.367 22.3531 100.04 22.8425 99.622 23.2608C99.2046 23.6791 98.716 24.0065 98.158 24.2414C97.6 24.4762 96.9974 24.5937 96.3528 24.5937C95.7082 24.5937 95.1057 24.4762 94.5476 24.2414C93.9896 24.0065 93.5011 23.6799 93.0836 23.2608C92.6662 22.8425 92.3387 22.3531 92.103 21.7933C91.8673 21.2336 91.749 20.6336 91.749 19.9933C91.749 19.353 91.8673 18.7547 92.103 18.1993C92.3387 17.6438 92.6653 17.1595 93.0836 16.7447C93.5011 16.3307 93.9896 16.0075 94.5476 15.777C95.1057 15.5464 95.7074 15.4307 96.3528 15.4307ZM96.3648 16.7121C95.9345 16.7121 95.5317 16.7953 95.1554 16.9624C94.7791 17.1287 94.4456 17.3618 94.1568 17.661C93.8671 17.9601 93.6416 18.3081 93.4805 18.705C93.3193 19.1019 93.2388 19.5313 93.2388 19.9933C93.2388 20.4553 93.3211 20.8865 93.4865 21.2876C93.6519 21.6896 93.8791 22.0419 94.1688 22.3445C94.4585 22.6479 94.7911 22.8854 95.1674 23.0559C95.5437 23.2265 95.9431 23.3122 96.3648 23.3122C96.7865 23.3122 97.186 23.2265 97.5623 23.0559C97.9386 22.8854 98.2677 22.6479 98.5489 22.3445C98.83 22.041 99.0512 21.6888 99.2123 21.2876C99.3734 20.8865 99.454 20.4545 99.454 19.9933C99.454 19.5322 99.3734 19.1027 99.2123 18.705C99.0512 18.3081 98.83 17.9601 98.5489 17.661C98.2677 17.3618 97.9386 17.1295 97.5623 16.9624C97.186 16.7961 96.7865 16.7121 96.3648 16.7121Z" fill="#16123F"/>
<path d="M106.043 15.5214C107.16 15.5214 108.022 15.7888 108.63 16.322C109.238 16.856 109.542 17.606 109.542 18.5711C109.542 19.5363 109.238 20.3634 108.63 20.9223C108.022 21.482 107.16 21.7615 106.043 21.7615H103.984V24.4906H102.52V15.5205H106.043V15.5214ZM106.043 20.468C106.714 20.468 107.232 20.3163 107.601 20.0129C107.968 19.7094 108.153 19.2423 108.153 18.6097C108.153 17.9771 107.968 17.5528 107.601 17.258C107.232 16.9631 106.714 16.8157 106.043 16.8157H103.984V20.468H106.043ZM106.093 21.1726H107.532L109.691 24.4915H108.028L106.093 21.1726Z" fill="#16123F"/>
<path d="M111.49 15.5205H117.694V16.8148H112.954V19.3391H117.198V20.6206H112.954V23.1963H117.843V24.4906H111.489V15.5205H111.49Z" fill="#16123F"/>
<path d="M30.095 17.0642C27.1721 16.0742 24.2501 15.0799 21.3298 14.0796C20.9209 13.9399 20.524 13.8413 20.1837 14.1945C19.8614 14.5296 19.9729 14.9145 20.104 15.2976C20.6355 16.8499 21.1592 18.4057 21.6889 19.9588C22.1723 21.3766 22.6635 22.7917 23.1444 24.2112C23.2704 24.5832 23.4795 24.8403 23.8969 24.8626C24.3392 24.8858 24.5904 24.6406 24.7378 24.2523C24.8012 24.0852 24.8681 23.9206 24.9341 23.7543C25.2778 22.8843 25.6207 22.0151 26.0055 21.0423C26.555 21.6148 27.0307 22.1231 27.521 22.6177C27.9899 23.0909 28.4073 23.1286 28.7785 22.754C29.1342 22.3957 29.0965 21.9294 28.649 21.4828C28.157 20.9908 27.6479 20.516 27.0873 19.9768C28.1716 19.5448 29.141 19.1377 30.1268 18.7742C30.5725 18.6105 30.9051 18.3945 30.8905 17.8794C30.8768 17.3771 30.5065 17.2039 30.095 17.0642ZM25.6335 18.8068C25.2264 18.95 24.9804 19.1977 24.8338 19.5928C24.587 20.2563 24.3169 20.9111 23.9964 21.7203C23.3269 19.7634 22.7055 17.9462 22.0463 16.0193C23.9844 16.6828 25.8007 17.3051 27.7413 17.9694C26.9596 18.2831 26.3056 18.5702 25.6344 18.806L25.6335 18.8068Z" fill="#16123F"/>
<path d="M23.2025 0.482251L21.5405 5.76748C21.4847 5.94405 21.3065 6.05291 21.1239 6.02033L17.9695 5.46661C17.6738 5.41433 17.5607 5.05004 17.775 4.83918L22.5913 0.107674C22.8656 -0.161473 23.3182 0.115388 23.2025 0.482251Z" fill="#16123F"/>
<path d="M40.9247 6.843C40.9247 6.62785 40.9264 6.4127 40.9067 6.19927C40.869 5.79812 40.6718 5.52983 40.2458 5.47926C39.9792 5.44754 39.7101 5.37812 39.4469 5.39526C37.6443 5.5144 35.828 5.54526 34.0451 5.80669C31.2302 6.21984 28.4805 6.93557 25.8524 8.06873C25.6098 8.1733 25.2567 8.15102 24.9961 8.06445C24.0815 7.76015 23.1987 7.36158 22.2798 7.07271C20.0083 6.3587 17.6889 5.83241 15.3145 5.62069C13.9251 5.4964 12.5279 5.42355 11.1333 5.41926C10.1459 5.41583 9.95215 5.68755 9.95215 6.65957C9.95215 12.8645 9.95215 19.0695 9.95215 25.2744C9.95215 25.4184 10.0284 25.5513 10.1527 25.6241L11.1933 26.2301C11.3493 26.321 11.5456 26.2087 11.5456 26.0279C11.5465 19.9283 11.5499 13.8288 11.5362 7.72929C11.5353 7.22357 11.6476 7.06929 12.1825 7.077C16.5085 7.13786 20.6632 7.99501 24.6404 9.69218C25.1933 9.9279 25.6681 9.92962 26.2244 9.69218C30.2694 7.96673 34.4977 7.10271 38.8966 7.09157C39.0004 7.09157 39.1041 7.10529 39.2446 7.11557V28.7442C37.7849 28.8376 36.3766 28.9173 34.97 29.0211C32.3857 29.2113 29.9128 29.9022 27.4947 30.8168C26.9736 31.0139 26.467 31.2445 25.9527 31.458C25.5696 31.6174 25.2421 31.5822 24.8418 31.4391C23.0281 30.7902 21.2246 30.0805 19.3637 29.6039C18.4037 29.3579 17.4326 29.1693 16.4528 29.039C16.3277 29.0219 16.2694 29.1908 16.3791 29.2542L20.0606 31.3997C21.5238 31.7905 22.9484 32.3254 24.3207 32.9905C25.1076 33.372 25.747 33.3591 26.5296 32.9991C30.6834 31.0919 35.0591 30.2811 39.6235 30.4868C40.6135 30.5314 40.9195 30.2476 40.9204 29.2516C40.923 25.4904 40.9212 21.7284 40.9212 17.9672H40.9238C40.9238 14.2591 40.9238 10.5519 40.9238 6.84386L40.9247 6.843Z" fill="#16123F"/>
<path d="M41.4926 13.2349V18.1062C41.4926 18.215 41.5406 18.3179 41.6238 18.3882L46.2258 22.2762C46.3647 22.3937 46.3973 22.5934 46.3038 22.7494L36.2365 39.4356C36.0017 39.8239 36.5391 40.2113 36.834 39.8659L52.2997 21.7285C52.4342 21.5708 52.4128 21.3333 52.2517 21.2022L42.0952 12.9486C41.8535 12.7524 41.4926 12.9246 41.4926 13.2349Z" fill="#16123F"/>
<path d="M9.40375 16.295V22.6808C9.40375 22.794 9.35232 22.9002 9.26404 22.9705L7.57543 24.3077C7.37229 24.4688 7.39372 24.7834 7.61658 24.9154L24.6209 34.9664C24.7923 35.0676 24.8523 35.2879 24.7563 35.4627L23.0437 38.5768C22.9426 38.7611 22.7077 38.8236 22.5277 38.7139L0.177309 25.11C-0.028409 24.9848 -0.0609809 24.6994 0.110451 24.5306L8.77546 16.031C9.00946 15.8021 9.40375 15.9676 9.40375 16.295Z" fill="#16123F"/>
</svg>
