<svg width="111" height="110" viewBox="0 0 111 110" fill="none" xmlns="http://www.w3.org/2000/svg">
<path d="M66.224 11.481C60.3627 10.8035 54.8012 14.2097 52.7916 19.7077C52.3388 20.9467 52.1797 22.2863 52.1052 23.6905C52.0493 24.7499 52.0354 26.0126 52.0326 27.4998L52.0312 29.5852C52.0312 29.6072 52.0312 29.6292 52.0312 29.6511V66.6227C48.1014 62.9675 42.8146 60.729 37 60.729C24.867 60.729 15.0312 70.4759 15.0312 82.4998C15.0312 94.5237 24.867 104.271 37 104.271C49.1332 104.271 58.9687 94.5237 58.9687 82.4998V42.215C59.4534 42.4711 59.9784 42.731 60.5537 43.0156L73.0759 49.2202C75.0106 50.1786 76.5849 50.9587 77.8748 51.516C79.1754 52.0779 80.4556 52.5363 81.7765 52.6889C87.6373 53.3663 93.1988 49.96 95.2084 44.4622C95.6616 43.2232 95.8203 41.8835 95.8952 40.4793C95.9687 39.0868 95.9687 37.3426 95.9687 35.1993L95.9692 34.8196C95.9697 33.2258 95.9701 31.9789 95.7421 30.7973C95.1547 27.7558 93.4578 25.035 90.9756 23.1541C90.0108 22.4234 88.8856 21.8664 87.4467 21.1542L74.9245 14.9497C72.9899 13.9911 71.4155 13.211 70.1256 12.6538C68.8251 12.0918 67.5449 11.6337 66.224 11.481Z" fill="white" fill-opacity="0.3"/>
</svg>
