<svg width="46" height="16" viewBox="0 0 46 16" fill="none" xmlns="http://www.w3.org/2000/svg">
<mask id="mask0_1_27761" style="mask-type:luminance" maskUnits="userSpaceOnUse" x="0" y="0" width="46" height="16">
<path d="M23.7901 5.32167C23.7639 7.39085 25.6341 8.54562 27.0431 9.23212C28.4907 9.93658 28.9769 10.3883 28.9713 11.0181C28.9603 11.9823 27.8166 12.4077 26.7461 12.4243C24.8786 12.4533 23.7929 11.9201 22.9295 11.5168L22.2569 14.6648C23.1229 15.064 24.7266 15.4121 26.3897 15.4272C30.2933 15.4272 32.8473 13.5003 32.8611 10.5126C32.8763 6.72092 27.6163 6.51097 27.6522 4.81611C27.6646 4.30227 28.155 3.75389 29.2297 3.61438C29.7615 3.54394 31.2298 3.49007 32.8942 4.25669L33.5476 1.21092C32.6525 0.884938 31.5019 0.572763 30.0695 0.572763C26.3952 0.572763 23.8108 2.52592 23.7901 5.32167ZM39.8256 0.83521C39.1128 0.83521 38.512 1.25098 38.244 1.88914L32.6677 15.2035H36.5685L37.3448 13.0583H42.1116L42.5619 15.2035H46L42.9998 0.83521H39.8256ZM40.3712 4.71666L41.497 10.112H38.4139L40.3712 4.71666ZM19.0605 0.83521L15.9858 15.2035H19.7028L22.7762 0.83521H19.0605ZM13.5616 0.83521L9.69257 10.6148L8.12756 2.29939C7.94385 1.37115 7.21867 0.83521 6.41338 0.83521H0.0884107L0 1.25236C1.29842 1.53415 2.77365 1.9886 3.66735 2.47481C4.21434 2.77179 4.37042 3.03148 4.54999 3.73732L7.51427 15.2035H11.4427L17.4651 0.83521H13.5616Z" fill="white"/>
</mask>
<g mask="url(#mask0_1_27761)">
<path d="M-4.81714 2.34676L40.5065 -14.3448L50.8174 13.6536L5.49425 30.3452" fill="url(#paint0_linear_1_27761)"/>
</g>
<defs>
<linearGradient id="paint0_linear_1_27761" x1="4.16679" y1="14.9757" x2="42.9349" y2="0.697992" gradientUnits="userSpaceOnUse">
<stop stop-color="#222357"/>
<stop offset="1" stop-color="#254AA5"/>
</linearGradient>
</defs>
</svg>
